<?xml version="1.0" encoding="UTF-8" standalone="no"?>
<!DOCTYPE svg PUBLIC "-//W3C//DTD SVG 1.1//EN"
 "http://www.w3.org/Graphics/SVG/1.1/DTD/svg11.dtd">
<!-- Generated by graphviz version 2.42.4 (0)
 -->
<!-- Pages: 1 -->
<svg width="1125pt" height="1254pt"
 viewBox="0.00 0.00 1125.00 1254.00" xmlns="http://www.w3.org/2000/svg" xmlns:xlink="http://www.w3.org/1999/xlink">
<g id="graph0" class="graph" transform="scale(1 1) rotate(0) translate(4 1250)">
<polygon fill="white" stroke="transparent" points="-4,4 -4,-1250 1121,-1250 1121,4 -4,4"/>
<!-- _sqliteai_vector -->
<g id="node1" class="node">
<title>_sqliteai_vector</title>
<polygon fill="none" stroke="black" points="137.5,-104 137.5,-132 269.5,-132 269.5,-104 137.5,-104"/>
<text text-anchor="start" x="142.5" y="-115.2" font-family="Helvetica,sans-Serif" font-weight="bold" font-size="16.00">_sqliteai_vector</text>
<polygon fill="none" stroke="black" points="137.5,-79 137.5,-104 269.5,-104 269.5,-79 137.5,-79"/>
<text text-anchor="start" x="142.5" y="-88.8" font-family="Helvetica,sans-Serif" text-decoration="underline" font-size="14.00">colname</text>
<text text-anchor="start" x="194.5" y="-88.8" font-family="Helvetica,sans-Serif" font-size="14.00"> </text>
<text text-anchor="start" x="198.5" y="-88.8" font-family="Helvetica,sans-Serif" font-size="14.00"> [TEXT]</text>
<polygon fill="none" stroke="black" points="137.5,-54 137.5,-79 269.5,-79 269.5,-54 137.5,-54"/>
<text text-anchor="start" x="142.5" y="-63.8" font-family="Helvetica,sans-Serif" text-decoration="underline" font-size="14.00">key</text>
<text text-anchor="start" x="164.5" y="-63.8" font-family="Helvetica,sans-Serif" font-size="14.00"> </text>
<text text-anchor="start" x="168.5" y="-63.8" font-family="Helvetica,sans-Serif" font-size="14.00"> [TEXT]</text>
<polygon fill="none" stroke="black" points="137.5,-29 137.5,-54 269.5,-54 269.5,-29 137.5,-29"/>
<text text-anchor="start" x="142.5" y="-38.8" font-family="Helvetica,sans-Serif" text-decoration="underline" font-size="14.00">tblname</text>
<text text-anchor="start" x="191.5" y="-38.8" font-family="Helvetica,sans-Serif" font-size="14.00"> </text>
<text text-anchor="start" x="195.5" y="-38.8" font-family="Helvetica,sans-Serif" font-size="14.00"> [TEXT]</text>
<polygon fill="none" stroke="black" points="137.5,-4 137.5,-29 269.5,-29 269.5,-4 137.5,-4"/>
<text text-anchor="start" x="142.5" y="-13.8" font-family="Helvetica,sans-Serif" font-size="14.00">value</text>
<text text-anchor="start" x="175.5" y="-13.8" font-family="Helvetica,sans-Serif" font-size="14.00"> </text>
<text text-anchor="start" x="179.5" y="-13.8" font-family="Helvetica,sans-Serif" font-size="14.00"> [NUMERIC]</text>
</g>
<!-- vector0_waywo_projects_description_embedding -->
<g id="node2" class="node">
<title>vector0_waywo_projects_description_embedding</title>
<polygon fill="none" stroke="black" points="8.5,-258 8.5,-286 399.5,-286 399.5,-258 8.5,-258"/>
<text text-anchor="start" x="13.5" y="-269.2" font-family="Helvetica,sans-Serif" font-weight="bold" font-size="16.00">vector0_waywo_projects_description_embedding</text>
<polygon fill="none" stroke="black" points="8.5,-233 8.5,-258 399.5,-258 399.5,-233 8.5,-233"/>
<text text-anchor="start" x="13.5" y="-242.8" font-family="Helvetica,sans-Serif" font-size="14.00">counter</text>
<text text-anchor="start" x="59.5" y="-242.8" font-family="Helvetica,sans-Serif" font-size="14.00"> </text>
<text text-anchor="start" x="63.5" y="-242.8" font-family="Helvetica,sans-Serif" font-size="14.00"> [INTEGER]</text>
<polygon fill="none" stroke="black" points="8.5,-208 8.5,-233 399.5,-233 399.5,-208 8.5,-208"/>
<text text-anchor="start" x="13.5" y="-217.8" font-family="Helvetica,sans-Serif" font-size="14.00">data</text>
<text text-anchor="start" x="40.5" y="-217.8" font-family="Helvetica,sans-Serif" font-size="14.00"> </text>
<text text-anchor="start" x="44.5" y="-217.8" font-family="Helvetica,sans-Serif" font-size="14.00"> [BLOB]</text>
<polygon fill="none" stroke="black" points="8.5,-183 8.5,-208 399.5,-208 399.5,-183 8.5,-183"/>
<text text-anchor="start" x="13.5" y="-192.8" font-family="Helvetica,sans-Serif" font-size="14.00">rowid1</text>
<text text-anchor="start" x="53.5" y="-192.8" font-family="Helvetica,sans-Serif" font-size="14.00"> </text>
<text text-anchor="start" x="57.5" y="-192.8" font-family="Helvetica,sans-Serif" font-size="14.00"> [INTEGER]</text>
<polygon fill="none" stroke="black" points="8.5,-158 8.5,-183 399.5,-183 399.5,-158 8.5,-158"/>
<text text-anchor="start" x="13.5" y="-167.8" font-family="Helvetica,sans-Serif" font-size="14.00">rowid2</text>
<text text-anchor="start" x="53.5" y="-167.8" font-family="Helvetica,sans-Serif" font-size="14.00"> </text>
<text text-anchor="start" x="57.5" y="-167.8" font-family="Helvetica,sans-Serif" font-size="14.00"> [INTEGER]</text>
</g>
<!-- waywo_comments -->
<g id="node3" class="node">
<title>waywo_comments</title>
<polygon fill="none" stroke="black" points="488,-863 488,-891 722,-891 722,-863 488,-863"/>
<text text-anchor="start" x="533.5" y="-874.2" font-family="Helvetica,sans-Serif" font-weight="bold" font-size="16.00">waywo_comments</text>
<polygon fill="none" stroke="black" points="488,-838 488,-863 722,-863 722,-838 488,-838"/>
<text text-anchor="start" x="493" y="-847.8" font-family="Helvetica,sans-Serif" text-decoration="underline" font-size="14.00">id</text>
<text text-anchor="start" x="504" y="-847.8" font-family="Helvetica,sans-Serif" font-size="14.00"> </text>
<text text-anchor="start" x="508" y="-847.8" font-family="Helvetica,sans-Serif" font-size="14.00"> [INTEGER]</text>
<text text-anchor="start" x="581" y="-847.8" font-family="Helvetica,sans-Serif" font-size="14.00"> NOT NULL</text>
<polygon fill="none" stroke="black" points="488,-813 488,-838 722,-838 722,-813 488,-813"/>
<text text-anchor="start" x="493" y="-822.8" font-family="Helvetica,sans-Serif" font-size="14.00">by</text>
<text text-anchor="start" x="508" y="-822.8" font-family="Helvetica,sans-Serif" font-size="14.00"> </text>
<text text-anchor="start" x="512" y="-822.8" font-family="Helvetica,sans-Serif" font-size="14.00"> [VARCHAR(255)]</text>
<polygon fill="none" stroke="black" points="488,-788 488,-813 722,-813 722,-788 488,-788"/>
<text text-anchor="start" x="493" y="-797.8" font-family="Helvetica,sans-Serif" font-size="14.00">created_at</text>
<text text-anchor="start" x="557" y="-797.8" font-family="Helvetica,sans-Serif" font-size="14.00"> </text>
<text text-anchor="start" x="561" y="-797.8" font-family="Helvetica,sans-Serif" font-size="14.00"> [DATETIME]</text>
<text text-anchor="start" x="641" y="-797.8" font-family="Helvetica,sans-Serif" font-size="14.00"> NOT NULL</text>
<polygon fill="none" stroke="black" points="488,-763 488,-788 722,-788 722,-763 488,-763"/>
<text text-anchor="start" x="493" y="-772.8" font-family="Helvetica,sans-Serif" font-size="14.00">dead</text>
<text text-anchor="start" x="524" y="-772.8" font-family="Helvetica,sans-Serif" font-size="14.00"> </text>
<text text-anchor="start" x="528" y="-772.8" font-family="Helvetica,sans-Serif" font-size="14.00"> [BOOLEAN]</text>
<polygon fill="none" stroke="black" points="488,-738 488,-763 722,-763 722,-738 488,-738"/>
<text text-anchor="start" x="493" y="-747.8" font-family="Helvetica,sans-Serif" font-size="14.00">deleted</text>
<text text-anchor="start" x="538" y="-747.8" font-family="Helvetica,sans-Serif" font-size="14.00"> </text>
<text text-anchor="start" x="542" y="-747.8" font-family="Helvetica,sans-Serif" font-size="14.00"> [BOOLEAN]</text>
<polygon fill="none" stroke="black" points="488,-713 488,-738 722,-738 722,-713 488,-713"/>
<text text-anchor="start" x="493" y="-722.8" font-family="Helvetica,sans-Serif" font-size="14.00">kids</text>
<text text-anchor="start" x="518" y="-722.8" font-family="Helvetica,sans-Serif" font-size="14.00"> </text>
<text text-anchor="start" x="522" y="-722.8" font-family="Helvetica,sans-Serif" font-size="14.00"> [TEXT]</text>
<polygon fill="none" stroke="black" points="488,-688 488,-713 722,-713 722,-688 488,-688"/>
<text text-anchor="start" x="493" y="-697.8" font-family="Helvetica,sans-Serif" font-size="14.00">parent</text>
<text text-anchor="start" x="532" y="-697.8" font-family="Helvetica,sans-Serif" font-size="14.00"> </text>
<text text-anchor="start" x="536" y="-697.8" font-family="Helvetica,sans-Serif" font-size="14.00"> [INTEGER]</text>
<polygon fill="none" stroke="black" points="488,-663 488,-688 722,-688 722,-663 488,-663"/>
<text text-anchor="start" x="493" y="-672.8" font-family="Helvetica,sans-Serif" font-size="14.00">processed</text>
<text text-anchor="start" x="556" y="-672.8" font-family="Helvetica,sans-Serif" font-size="14.00"> </text>
<text text-anchor="start" x="560" y="-672.8" font-family="Helvetica,sans-Serif" font-size="14.00"> [BOOLEAN]</text>
<text text-anchor="start" x="639" y="-672.8" font-family="Helvetica,sans-Serif" font-size="14.00"> NOT NULL</text>
<polygon fill="none" stroke="black" points="488,-638 488,-663 722,-663 722,-638 488,-638"/>
<text text-anchor="start" x="493" y="-647.8" font-family="Helvetica,sans-Serif" font-size="14.00">processed_at</text>
<text text-anchor="start" x="575" y="-647.8" font-family="Helvetica,sans-Serif" font-size="14.00"> </text>
<text text-anchor="start" x="579" y="-647.8" font-family="Helvetica,sans-Serif" font-size="14.00"> [DATETIME]</text>
<polygon fill="none" stroke="black" points="488,-613 488,-638 722,-638 722,-613 488,-613"/>
<text text-anchor="start" x="493" y="-622.8" font-family="Helvetica,sans-Serif" font-size="14.00">text</text>
<text text-anchor="start" x="515" y="-622.8" font-family="Helvetica,sans-Serif" font-size="14.00"> </text>
<text text-anchor="start" x="519" y="-622.8" font-family="Helvetica,sans-Serif" font-size="14.00"> [TEXT]</text>
<polygon fill="none" stroke="black" points="488,-588 488,-613 722,-613 722,-588 488,-588"/>
<text text-anchor="start" x="493" y="-597.8" font-family="Helvetica,sans-Serif" font-size="14.00">time</text>
<text text-anchor="start" x="520" y="-597.8" font-family="Helvetica,sans-Serif" font-size="14.00"> </text>
<text text-anchor="start" x="524" y="-597.8" font-family="Helvetica,sans-Serif" font-size="14.00"> [INTEGER]</text>
<polygon fill="none" stroke="black" points="488,-563 488,-588 722,-588 722,-563 488,-563"/>
<text text-anchor="start" x="493" y="-572.8" font-family="Helvetica,sans-Serif" font-size="14.00">type</text>
<text text-anchor="start" x="519" y="-572.8" font-family="Helvetica,sans-Serif" font-size="14.00"> </text>
<text text-anchor="start" x="523" y="-572.8" font-family="Helvetica,sans-Serif" font-size="14.00"> [VARCHAR(50)]</text>
<text text-anchor="start" x="624" y="-572.8" font-family="Helvetica,sans-Serif" font-size="14.00"> NOT NULL</text>
<polygon fill="none" stroke="black" points="488,-538 488,-563 722,-563 722,-538 488,-538"/>
<text text-anchor="start" x="493" y="-547.8" font-family="Helvetica,sans-Serif" font-size="14.00">updated_at</text>
<text text-anchor="start" x="561" y="-547.8" font-family="Helvetica,sans-Serif" font-size="14.00"> </text>
<text text-anchor="start" x="565" y="-547.8" font-family="Helvetica,sans-Serif" font-size="14.00"> [DATETIME]</text>
<text text-anchor="start" x="645" y="-547.8" font-family="Helvetica,sans-Serif" font-size="14.00"> NOT NULL</text>
</g>
<!-- waywo_projects -->
<g id="node5" class="node">
<title>waywo_projects</title>
<polygon fill="none" stroke="black" points="811,-1214 811,-1242 1109,-1242 1109,-1214 811,-1214"/>
<text text-anchor="start" x="897.5" y="-1225.2" font-family="Helvetica,sans-Serif" font-weight="bold" font-size="16.00">waywo_projects</text>
<polygon fill="none" stroke="black" points="811,-1189 811,-1214 1109,-1214 1109,-1189 811,-1189"/>
<text text-anchor="start" x="816" y="-1198.8" font-family="Helvetica,sans-Serif" text-decoration="underline" font-size="14.00">id</text>
<text text-anchor="start" x="827" y="-1198.8" font-family="Helvetica,sans-Serif" font-size="14.00"> </text>
<text text-anchor="start" x="831" y="-1198.8" font-family="Helvetica,sans-Serif" font-size="14.00"> [INTEGER]</text>
<text text-anchor="start" x="904" y="-1198.8" font-family="Helvetica,sans-Serif" font-size="14.00"> NOT NULL</text>
<polygon fill="none" stroke="black" points="811,-1164 811,-1189 1109,-1189 1109,-1164 811,-1164"/>
<text text-anchor="start" x="816" y="-1173.8" font-family="Helvetica,sans-Serif" font-size="14.00">complexity_score</text>
<text text-anchor="start" x="922" y="-1173.8" font-family="Helvetica,sans-Serif" font-size="14.00"> </text>
<text text-anchor="start" x="926" y="-1173.8" font-family="Helvetica,sans-Serif" font-size="14.00"> [INTEGER]</text>
<text text-anchor="start" x="999" y="-1173.8" font-family="Helvetica,sans-Serif" font-size="14.00"> NOT NULL</text>
<polygon fill="none" stroke="black" points="811,-1139 811,-1164 1109,-1164 1109,-1139 811,-1139"/>
<text text-anchor="start" x="816" y="-1148.8" font-family="Helvetica,sans-Serif" font-size="14.00">created_at</text>
<text text-anchor="start" x="880" y="-1148.8" font-family="Helvetica,sans-Serif" font-size="14.00"> </text>
<text text-anchor="start" x="884" y="-1148.8" font-family="Helvetica,sans-Serif" font-size="14.00"> [DATETIME]</text>
<text text-anchor="start" x="964" y="-1148.8" font-family="Helvetica,sans-Serif" font-size="14.00"> NOT NULL</text>
<polygon fill="none" stroke="black" points="811,-1114 811,-1139 1109,-1139 1109,-1114 811,-1114"/>
<text text-anchor="start" x="816" y="-1123.8" font-family="Helvetica,sans-Serif" font-size="14.00">description</text>
<text text-anchor="start" x="882" y="-1123.8" font-family="Helvetica,sans-Serif" font-size="14.00"> </text>
<text text-anchor="start" x="886" y="-1123.8" font-family="Helvetica,sans-Serif" font-size="14.00"> [TEXT]</text>
<text text-anchor="start" x="932" y="-1123.8" font-family="Helvetica,sans-Serif" font-size="14.00"> NOT NULL</text>
<polygon fill="none" stroke="black" points="811,-1089 811,-1114 1109,-1114 1109,-1089 811,-1089"/>
<text text-anchor="start" x="816" y="-1098.8" font-family="Helvetica,sans-Serif" font-size="14.00">description_embedding</text>
<text text-anchor="start" x="957" y="-1098.8" font-family="Helvetica,sans-Serif" font-size="14.00"> </text>
<text text-anchor="start" x="961" y="-1098.8" font-family="Helvetica,sans-Serif" font-size="14.00"> [BLOB]</text>
<polygon fill="none" stroke="black" points="811,-1064 811,-1089 1109,-1089 1109,-1064 811,-1064"/>
<text text-anchor="start" x="816" y="-1073.8" font-family="Helvetica,sans-Serif" font-size="14.00">hashtags</text>
<text text-anchor="start" x="871" y="-1073.8" font-family="Helvetica,sans-Serif" font-size="14.00"> </text>
<text text-anchor="start" x="875" y="-1073.8" font-family="Helvetica,sans-Serif" font-size="14.00"> [TEXT]</text>
<text text-anchor="start" x="921" y="-1073.8" font-family="Helvetica,sans-Serif" font-size="14.00"> NOT NULL</text>
<polygon fill="none" stroke="black" points="811,-1039 811,-1064 1109,-1064 1109,-1039 811,-1039"/>
<text text-anchor="start" x="816" y="-1048.8" font-family="Helvetica,sans-Serif" font-size="14.00">idea_score</text>
<text text-anchor="start" x="883" y="-1048.8" font-family="Helvetica,sans-Serif" font-size="14.00"> </text>
<text text-anchor="start" x="887" y="-1048.8" font-family="Helvetica,sans-Serif" font-size="14.00"> [INTEGER]</text>
<text text-anchor="start" x="960" y="-1048.8" font-family="Helvetica,sans-Serif" font-size="14.00"> NOT NULL</text>
<polygon fill="none" stroke="black" points="811,-1014 811,-1039 1109,-1039 1109,-1014 811,-1014"/>
<text text-anchor="start" x="816" y="-1023.8" font-family="Helvetica,sans-Serif" font-size="14.00">invalid_reason</text>
<text text-anchor="start" x="904" y="-1023.8" font-family="Helvetica,sans-Serif" font-size="14.00"> </text>
<text text-anchor="start" x="908" y="-1023.8" font-family="Helvetica,sans-Serif" font-size="14.00"> [VARCHAR(500)]</text>
<polygon fill="none" stroke="black" points="811,-989 811,-1014 1109,-1014 1109,-989 811,-989"/>
<text text-anchor="start" x="816" y="-998.8" font-family="Helvetica,sans-Serif" font-size="14.00">is_bookmarked</text>
<text text-anchor="start" x="909" y="-998.8" font-family="Helvetica,sans-Serif" font-size="14.00"> </text>
<text text-anchor="start" x="913" y="-998.8" font-family="Helvetica,sans-Serif" font-size="14.00"> [BOOLEAN]</text>
<text text-anchor="start" x="992" y="-998.8" font-family="Helvetica,sans-Serif" font-size="14.00"> NOT NULL</text>
<polygon fill="none" stroke="black" points="811,-964 811,-989 1109,-989 1109,-964 811,-964"/>
<text text-anchor="start" x="816" y="-973.8" font-family="Helvetica,sans-Serif" font-size="14.00">is_valid_project</text>
<text text-anchor="start" x="910" y="-973.8" font-family="Helvetica,sans-Serif" font-size="14.00"> </text>
<text text-anchor="start" x="914" y="-973.8" font-family="Helvetica,sans-Serif" font-size="14.00"> [BOOLEAN]</text>
<text text-anchor="start" x="993" y="-973.8" font-family="Helvetica,sans-Serif" font-size="14.00"> NOT NULL</text>
<polygon fill="none" stroke="black" points="811,-939 811,-964 1109,-964 1109,-939 811,-939"/>
<text text-anchor="start" x="816" y="-948.8" font-family="Helvetica,sans-Serif" font-size="14.00">processed_at</text>
<text text-anchor="start" x="898" y="-948.8" font-family="Helvetica,sans-Serif" font-size="14.00"> </text>
<text text-anchor="start" x="902" y="-948.8" font-family="Helvetica,sans-Serif" font-size="14.00"> [DATETIME]</text>
<text text-anchor="start" x="982" y="-948.8" font-family="Helvetica,sans-Serif" font-size="14.00"> NOT NULL</text>
<polygon fill="none" stroke="black" points="811,-914 811,-939 1109,-939 1109,-914 811,-914"/>
<text text-anchor="start" x="816" y="-923.8" font-family="Helvetica,sans-Serif" font-size="14.00">project_urls</text>
<text text-anchor="start" x="886" y="-923.8" font-family="Helvetica,sans-Serif" font-size="14.00"> </text>
<text text-anchor="start" x="890" y="-923.8" font-family="Helvetica,sans-Serif" font-size="14.00"> [TEXT]</text>
<polygon fill="none" stroke="black" points="811,-889 811,-914 1109,-914 1109,-889 811,-889"/>
<text text-anchor="start" x="816" y="-898.8" font-family="Helvetica,sans-Serif" font-size="14.00">screenshot_path</text>
<text text-anchor="start" x="916" y="-898.8" font-family="Helvetica,sans-Serif" font-size="14.00"> </text>
<text text-anchor="start" x="920" y="-898.8" font-family="Helvetica,sans-Serif" font-size="14.00"> [TEXT]</text>
<polygon fill="none" stroke="black" points="811,-864 811,-889 1109,-889 1109,-864 811,-864"/>
<text text-anchor="start" x="816" y="-873.8" font-family="Helvetica,sans-Serif" font-size="14.00">short_description</text>
<text text-anchor="start" x="919" y="-873.8" font-family="Helvetica,sans-Serif" font-size="14.00"> </text>
<text text-anchor="start" x="923" y="-873.8" font-family="Helvetica,sans-Serif" font-size="14.00"> [VARCHAR(200)]</text>
<text text-anchor="start" x="1032" y="-873.8" font-family="Helvetica,sans-Serif" font-size="14.00"> NOT NULL</text>
<polygon fill="none" stroke="black" points="811,-839 811,-864 1109,-864 1109,-839 811,-839"/>
<text text-anchor="start" x="816" y="-848.8" font-family="Helvetica,sans-Serif" font-size="14.00">source_comment_id</text>
<text text-anchor="start" x="940" y="-848.8" font-family="Helvetica,sans-Serif" font-size="14.00"> </text>
<text text-anchor="start" x="944" y="-848.8" font-family="Helvetica,sans-Serif" font-size="14.00"> [INTEGER]</text>
<text text-anchor="start" x="1017" y="-848.8" font-family="Helvetica,sans-Serif" font-size="14.00"> NOT NULL</text>
<polygon fill="none" stroke="black" points="811,-814 811,-839 1109,-839 1109,-814 811,-814"/>
<text text-anchor="start" x="816" y="-823.8" font-family="Helvetica,sans-Serif" font-size="14.00">title</text>
<text text-anchor="start" x="838" y="-823.8" font-family="Helvetica,sans-Serif" font-size="14.00"> </text>
<text text-anchor="start" x="842" y="-823.8" font-family="Helvetica,sans-Serif" font-size="14.00"> [VARCHAR(500)]</text>
<text text-anchor="start" x="951" y="-823.8" font-family="Helvetica,sans-Serif" font-size="14.00"> NOT NULL</text>
<polygon fill="none" stroke="black" points="811,-789 811,-814 1109,-814 1109,-789 811,-789"/>
<text text-anchor="start" x="816" y="-798.8" font-family="Helvetica,sans-Serif" font-size="14.00">url_summaries</text>
<text text-anchor="start" x="907" y="-798.8" font-family="Helvetica,sans-Serif" font-size="14.00"> </text>
<text text-anchor="start" x="911" y="-798.8" font-family="Helvetica,sans-Serif" font-size="14.00"> [TEXT]</text>
<polygon fill="none" stroke="black" points="811,-764 811,-789 1109,-789 1109,-764 811,-764"/>
<text text-anchor="start" x="816" y="-773.8" font-family="Helvetica,sans-Serif" font-size="14.00">workflow_logs</text>
<text text-anchor="start" x="901" y="-773.8" font-family="Helvetica,sans-Serif" font-size="14.00"> </text>
<text text-anchor="start" x="905" y="-773.8" font-family="Helvetica,sans-Serif" font-size="14.00"> [TEXT]</text>
</g>
<!-- waywo_comments&#45;&#45;waywo_projects -->
<g id="edge2" class="edge">
<title>waywo_comments:id&#45;&#45;waywo_projects:source_comment_id</title>
<path fill="none" stroke="#7f7f7f" stroke-dasharray="5,2" d="M723,-851C761.67,-851 771.33,-851 810,-851"/>
<text text-anchor="start" x="785" y="-839.8" font-family="Times,serif" font-size="14.00">0..N</text>
<text text-anchor="start" x="716" y="-839.8" font-family="Times,serif" font-size="14.00">1</text>
</g>
<!-- waywo_posts -->
<g id="node4" class="node">
<title>waywo_posts</title>
<polygon fill="none" stroke="black" points="86.5,-712 86.5,-740 320.5,-740 320.5,-712 86.5,-712"/>
<text text-anchor="start" x="150.5" y="-723.2" font-family="Helvetica,sans-Serif" font-weight="bold" font-size="16.00">waywo_posts</text>
<polygon fill="none" stroke="black" points="86.5,-687 86.5,-712 320.5,-712 320.5,-687 86.5,-687"/>
<text text-anchor="start" x="91.5" y="-696.8" font-family="Helvetica,sans-Serif" text-decoration="underline" font-size="14.00">id</text>
<text text-anchor="start" x="102.5" y="-696.8" font-family="Helvetica,sans-Serif" font-size="14.00"> </text>
<text text-anchor="start" x="106.5" y="-696.8" font-family="Helvetica,sans-Serif" font-size="14.00"> [INTEGER]</text>
<text text-anchor="start" x="179.5" y="-696.8" font-family="Helvetica,sans-Serif" font-size="14.00"> NOT NULL</text>
<polygon fill="none" stroke="black" points="86.5,-662 86.5,-687 320.5,-687 320.5,-662 86.5,-662"/>
<text text-anchor="start" x="91.5" y="-671.8" font-family="Helvetica,sans-Serif" font-size="14.00">by</text>
<text text-anchor="start" x="106.5" y="-671.8" font-family="Helvetica,sans-Serif" font-size="14.00"> </text>
<text text-anchor="start" x="110.5" y="-671.8" font-family="Helvetica,sans-Serif" font-size="14.00"> [VARCHAR(255)]</text>
<polygon fill="none" stroke="black" points="86.5,-637 86.5,-662 320.5,-662 320.5,-637 86.5,-637"/>
<text text-anchor="start" x="91.5" y="-646.8" font-family="Helvetica,sans-Serif" font-size="14.00">created_at</text>
<text text-anchor="start" x="155.5" y="-646.8" font-family="Helvetica,sans-Serif" font-size="14.00"> </text>
<text text-anchor="start" x="159.5" y="-646.8" font-family="Helvetica,sans-Serif" font-size="14.00"> [DATETIME]</text>
<text text-anchor="start" x="239.5" y="-646.8" font-family="Helvetica,sans-Serif" font-size="14.00"> NOT NULL</text>
<polygon fill="none" stroke="black" points="86.5,-612 86.5,-637 320.5,-637 320.5,-612 86.5,-612"/>
<text text-anchor="start" x="91.5" y="-621.8" font-family="Helvetica,sans-Serif" font-size="14.00">dead</text>
<text text-anchor="start" x="122.5" y="-621.8" font-family="Helvetica,sans-Serif" font-size="14.00"> </text>
<text text-anchor="start" x="126.5" y="-621.8" font-family="Helvetica,sans-Serif" font-size="14.00"> [BOOLEAN]</text>
<polygon fill="none" stroke="black" points="86.5,-587 86.5,-612 320.5,-612 320.5,-587 86.5,-587"/>
<text text-anchor="start" x="91.5" y="-596.8" font-family="Helvetica,sans-Serif" font-size="14.00">deleted</text>
<text text-anchor="start" x="136.5" y="-596.8" font-family="Helvetica,sans-Serif" font-size="14.00"> </text>
<text text-anchor="start" x="140.5" y="-596.8" font-family="Helvetica,sans-Serif" font-size="14.00"> [BOOLEAN]</text>
<polygon fill="none" stroke="black" points="86.5,-562 86.5,-587 320.5,-587 320.5,-562 86.5,-562"/>
<text text-anchor="start" x="91.5" y="-571.8" font-family="Helvetica,sans-Serif" font-size="14.00">descendants</text>
<text text-anchor="start" x="168.5" y="-571.8" font-family="Helvetica,sans-Serif" font-size="14.00"> </text>
<text text-anchor="start" x="172.5" y="-571.8" font-family="Helvetica,sans-Serif" font-size="14.00"> [INTEGER]</text>
<polygon fill="none" stroke="black" points="86.5,-537 86.5,-562 320.5,-562 320.5,-537 86.5,-537"/>
<text text-anchor="start" x="91.5" y="-546.8" font-family="Helvetica,sans-Serif" font-size="14.00">kids</text>
<text text-anchor="start" x="116.5" y="-546.8" font-family="Helvetica,sans-Serif" font-size="14.00"> </text>
<text text-anchor="start" x="120.5" y="-546.8" font-family="Helvetica,sans-Serif" font-size="14.00"> [TEXT]</text>
<polygon fill="none" stroke="black" points="86.5,-512 86.5,-537 320.5,-537 320.5,-512 86.5,-512"/>
<text text-anchor="start" x="91.5" y="-521.8" font-family="Helvetica,sans-Serif" font-size="14.00">month</text>
<text text-anchor="start" x="130.5" y="-521.8" font-family="Helvetica,sans-Serif" font-size="14.00"> </text>
<text text-anchor="start" x="134.5" y="-521.8" font-family="Helvetica,sans-Serif" font-size="14.00"> [INTEGER]</text>
<polygon fill="none" stroke="black" points="86.5,-487 86.5,-512 320.5,-512 320.5,-487 86.5,-487"/>
<text text-anchor="start" x="91.5" y="-496.8" font-family="Helvetica,sans-Serif" font-size="14.00">score</text>
<text text-anchor="start" x="125.5" y="-496.8" font-family="Helvetica,sans-Serif" font-size="14.00"> </text>
<text text-anchor="start" x="129.5" y="-496.8" font-family="Helvetica,sans-Serif" font-size="14.00"> [INTEGER]</text>
<polygon fill="none" stroke="black" points="86.5,-462 86.5,-487 320.5,-487 320.5,-462 86.5,-462"/>
<text text-anchor="start" x="91.5" y="-471.8" font-family="Helvetica,sans-Serif" font-size="14.00">text</text>
<text text-anchor="start" x="113.5" y="-471.8" font-family="Helvetica,sans-Serif" font-size="14.00"> </text>
<text text-anchor="start" x="117.5" y="-471.8" font-family="Helvetica,sans-Serif" font-size="14.00"> [TEXT]</text>
<polygon fill="none" stroke="black" points="86.5,-437 86.5,-462 320.5,-462 320.5,-437 86.5,-437"/>
<text text-anchor="start" x="91.5" y="-446.8" font-family="Helvetica,sans-Serif" font-size="14.00">time</text>
<text text-anchor="start" x="118.5" y="-446.8" font-family="Helvetica,sans-Serif" font-size="14.00"> </text>
<text text-anchor="start" x="122.5" y="-446.8" font-family="Helvetica,sans-Serif" font-size="14.00"> [INTEGER]</text>
<polygon fill="none" stroke="black" points="86.5,-412 86.5,-437 320.5,-437 320.5,-412 86.5,-412"/>
<text text-anchor="start" x="91.5" y="-421.8" font-family="Helvetica,sans-Serif" font-size="14.00">title</text>
<text text-anchor="start" x="113.5" y="-421.8" font-family="Helvetica,sans-Serif" font-size="14.00"> </text>
<text text-anchor="start" x="117.5" y="-421.8" font-family="Helvetica,sans-Serif" font-size="14.00"> [VARCHAR(500)]</text>
<polygon fill="none" stroke="black" points="86.5,-387 86.5,-412 320.5,-412 320.5,-387 86.5,-387"/>
<text text-anchor="start" x="91.5" y="-396.8" font-family="Helvetica,sans-Serif" font-size="14.00">type</text>
<text text-anchor="start" x="117.5" y="-396.8" font-family="Helvetica,sans-Serif" font-size="14.00"> </text>
<text text-anchor="start" x="121.5" y="-396.8" font-family="Helvetica,sans-Serif" font-size="14.00"> [VARCHAR(50)]</text>
<text text-anchor="start" x="222.5" y="-396.8" font-family="Helvetica,sans-Serif" font-size="14.00"> NOT NULL</text>
<polygon fill="none" stroke="black" points="86.5,-362 86.5,-387 320.5,-387 320.5,-362 86.5,-362"/>
<text text-anchor="start" x="91.5" y="-371.8" font-family="Helvetica,sans-Serif" font-size="14.00">updated_at</text>
<text text-anchor="start" x="159.5" y="-371.8" font-family="Helvetica,sans-Serif" font-size="14.00"> </text>
<text text-anchor="start" x="163.5" y="-371.8" font-family="Helvetica,sans-Serif" font-size="14.00"> [DATETIME]</text>
<text text-anchor="start" x="243.5" y="-371.8" font-family="Helvetica,sans-Serif" font-size="14.00"> NOT NULL</text>
<polygon fill="none" stroke="black" points="86.5,-337 86.5,-362 320.5,-362 320.5,-337 86.5,-337"/>
<text text-anchor="start" x="91.5" y="-346.8" font-family="Helvetica,sans-Serif" font-size="14.00">url</text>
<text text-anchor="start" x="107.5" y="-346.8" font-family="Helvetica,sans-Serif" font-size="14.00"> </text>
<text text-anchor="start" x="111.5" y="-346.8" font-family="Helvetica,sans-Serif" font-size="14.00"> [VARCHAR(2000)]</text>
<polygon fill="none" stroke="black" points="86.5,-312 86.5,-337 320.5,-337 320.5,-312 86.5,-312"/>
<text text-anchor="start" x="91.5" y="-321.8" font-family="Helvetica,sans-Serif" font-size="14.00">year</text>
<text text-anchor="start" x="118.5" y="-321.8" font-family="Helvetica,sans-Serif" font-size="14.00"> </text>
<text text-anchor="start" x="122.5" y="-321.8" font-family="Helvetica,sans-Serif" font-size="14.00"> [INTEGER]</text>
</g>
<!-- waywo_posts&#45;&#45;waywo_comments -->
<g id="edge1" class="edge">
<title>waywo_posts:id&#45;&#45;waywo_comments:parent</title>
<path fill="none" stroke="#7f7f7f" stroke-dasharray="5,2" d="M321.5,-700C395.06,-700 413.44,-700 487,-700"/>
<text text-anchor="start" x="462" y="-688.8" font-family="Times,serif" font-size="14.00">0..N</text>
<text text-anchor="start" x="321.5" y="-688.8" font-family="Times,serif" font-size="14.00">{0,1}</text>
</g>
</g>
</svg>
